<?xml version="1.0" encoding="utf-8" standalone="no"?>
<!DOCTYPE svg PUBLIC "-//W3C//DTD SVG 1.1//EN"
  "http://www.w3.org/Graphics/SVG/1.1/DTD/svg11.dtd">
<svg xmlns:xlink="http://www.w3.org/1999/xlink" width="587.925716pt" height="232.384875pt" viewBox="0 0 587.925716 232.384875" xmlns="http://www.w3.org/2000/svg" version="1.1">
 <metadata>
  <rdf:RDF xmlns:dc="http://purl.org/dc/elements/1.1/" xmlns:cc="http://creativecommons.org/ns#" xmlns:rdf="http://www.w3.org/1999/02/22-rdf-syntax-ns#">
   <cc:Work>
    <dc:type rdf:resource="http://purl.org/dc/dcmitype/StillImage"/>
    <dc:date>2024-08-08T23:49:26.493058</dc:date>
    <dc:format>image/svg+xml</dc:format>
    <dc:creator>
     <cc:Agent>
      <dc:title>Matplotlib v3.7.4, https://matplotlib.org/</dc:title>
     </cc:Agent>
    </dc:creator>
   </cc:Work>
  </rdf:RDF>
 </metadata>
 <defs>
  <style type="text/css">*{stroke-linejoin: round; stroke-linecap: butt}</style>
 </defs>
 <g id="figure_1">
  <g id="patch_1">
   <path d="M 0 232.384875 
L 587.925716 232.384875 
L 587.925716 0 
L 0 0 
z
" style="fill: #ffffff"/>
  </g>
  <g id="axes_1">
   <g id="patch_2">
    <path d="M 97.4 192.13375 
L 543.8 192.13375 
L 543.8 25.81375 
L 97.4 25.81375 
z
" style="fill: #ffffff"/>
   </g>
   <g id="line2d_1">
    <path d="M 97.4 162.97375 
L 543.8 162.97375 
" clip-path="url(#pc6d48bab8d)" style="fill: none; stroke-dasharray: 0.5,2.5; stroke-dashoffset: 0; stroke: #cccccc; stroke-width: 0.5"/>
   </g>
   <g id="line2d_2">
    <path d="M 97.4 108.97375 
L 543.8 108.97375 
" clip-path="url(#pc6d48bab8d)" style="fill: none; stroke-dasharray: 0.5,2.5; stroke-dashoffset: 0; stroke: #cccccc; stroke-width: 0.5"/>
   </g>
   <g id="line2d_3">
    <path d="M 97.4 54.97375 
L 543.8 54.97375 
" clip-path="url(#pc6d48bab8d)" style="fill: none; stroke-dasharray: 0.5,2.5; stroke-dashoffset: 0; stroke: #cccccc; stroke-width: 0.5"/>
   </g>
   <g id="line2d_4">
    <path d="M 163.223824 192.13375 
L 163.223824 136.69375 
" clip-path="url(#pc6d48bab8d)" style="fill: none; stroke-dasharray: 1.85,0.8; stroke-dashoffset: 0; stroke: #bbbbbb; stroke-width: 0.5"/>
   </g>
   <g id="line2d_5">
    <path d="M 519.885714 192.13375 
L 519.885714 25.81375 
" clip-path="url(#pc6d48bab8d)" style="fill: none; stroke-dasharray: 1.85,0.8; stroke-dashoffset: 0; stroke: #bbbbbb; stroke-width: 0.5"/>
   </g>
   <g id="patch_3">
    <path d="M 164.678727 76.57375 
L 523.509091 76.57375 
L 523.509091 33.37375 
L 164.678727 33.37375 
L 164.678727 76.57375 
z
" clip-path="url(#pc6d48bab8d)" style="fill: none; opacity: 0"/>
   </g>
   <g id="patch_4">
    <path d="M 153.924675 130.57375 
L 208.159247 130.57375 
L 208.159247 87.37375 
L 153.924675 87.37375 
L 153.924675 130.57375 
z
" clip-path="url(#pc6d48bab8d)" style="fill: none; opacity: 0"/>
   </g>
   <g id="patch_5">
    <path d="M 166.847191 184.57375 
L 117.690909 184.57375 
L 117.690909 141.37375 
L 166.847191 141.37375 
L 166.847191 184.57375 
z
" clip-path="url(#pc6d48bab8d)" style="fill: none; opacity: 0"/>
   </g>
   <g id="patch_6">
    <path d="M 519.885714 54.97375 
L 514.125714 76.57375 
L 514.125714 76.57375 
L 168.302104 76.57375 
L 168.302104 33.37375 
L 514.125714 33.37375 
L 514.125714 33.37375 
z
" clip-path="url(#pc6d48bab8d)" style="fill: #ff0051; stroke: #ff0051; stroke-linejoin: miter"/>
   </g>
   <g id="patch_7">
    <path d="M 168.302104 108.97375 
L 162.542104 130.57375 
L 162.542104 130.57375 
L 157.548052 130.57375 
L 157.548052 87.37375 
L 162.542104 87.37375 
L 162.542104 87.37375 
z
" clip-path="url(#pc6d48bab8d)" style="fill: #ff0051; stroke: #ff0051; stroke-linejoin: miter"/>
   </g>
   <g id="patch_8">
    <path d="M 157.547913 162.97375 
L 163.223676 141.37375 
L 163.223676 141.37375 
L 163.223815 141.37375 
L 163.223815 184.57375 
L 163.223676 184.57375 
L 163.223676 184.57375 
z
" clip-path="url(#pc6d48bab8d)" style="fill: #008bfb; stroke: #008bfb; stroke-linejoin: miter"/>
   </g>
   <g id="matplotlib.axis_1">
    <g id="xtick_1">
     <g id="line2d_6">
      <defs>
       <path id="m2bfdfff142" d="M 0 0 
L 0 3.5 
" style="stroke: #000000; stroke-width: 0.8"/>
      </defs>
      <g>
       <use xlink:href="#m2bfdfff142" x="131.56287" y="192.13375" style="stroke: #000000; stroke-width: 0.8"/>
      </g>
     </g>
     <g id="text_1">
      <!-- −1.0 -->
      <g transform="translate(115.779042 209.011719) scale(0.13 -0.13)">
       <defs>
        <path id="DejaVuSans-2212" d="M 678 2272 
L 4684 2272 
L 4684 1741 
L 678 1741 
L 678 2272 
z
" transform="scale(0.015625)"/>
        <path id="DejaVuSans-31" d="M 794 531 
L 1825 531 
L 1825 4091 
L 703 3866 
L 703 4441 
L 1819 4666 
L 2450 4666 
L 2450 531 
L 3481 531 
L 3481 0 
L 794 0 
L 794 531 
z
" transform="scale(0.015625)"/>
        <path id="DejaVuSans-2e" d="M 684 794 
L 1344 794 
L 1344 0 
L 684 0 
L 684 794 
z
" transform="scale(0.015625)"/>
        <path id="DejaVuSans-30" d="M 2034 4250 
Q 1547 4250 1301 3770 
Q 1056 3291 1056 2328 
Q 1056 1369 1301 889 
Q 1547 409 2034 409 
Q 2525 409 2770 889 
Q 3016 1369 3016 2328 
Q 3016 3291 2770 3770 
Q 2525 4250 2034 4250 
z
M 2034 4750 
Q 2819 4750 3233 4129 
Q 3647 3509 3647 2328 
Q 3647 1150 3233 529 
Q 2819 -91 2034 -91 
Q 1250 -91 836 529 
Q 422 1150 422 2328 
Q 422 3509 836 4129 
Q 1250 4750 2034 4750 
z
" transform="scale(0.015625)"/>
       </defs>
       <use xlink:href="#DejaVuSans-2212"/>
       <use xlink:href="#DejaVuSans-31" x="83.789062"/>
       <use xlink:href="#DejaVuSans-2e" x="147.412109"/>
       <use xlink:href="#DejaVuSans-30" x="179.199219"/>
      </g>
     </g>
    </g>
    <g id="xtick_2">
     <g id="line2d_7">
      <g>
       <use xlink:href="#m2bfdfff142" x="200.801404" y="192.13375" style="stroke: #000000; stroke-width: 0.8"/>
      </g>
     </g>
     <g id="text_2">
      <!-- −0.5 -->
      <g transform="translate(185.017576 209.011719) scale(0.13 -0.13)">
       <defs>
        <path id="DejaVuSans-35" d="M 691 4666 
L 3169 4666 
L 3169 4134 
L 1269 4134 
L 1269 2991 
Q 1406 3038 1543 3061 
Q 1681 3084 1819 3084 
Q 2600 3084 3056 2656 
Q 3513 2228 3513 1497 
Q 3513 744 3044 326 
Q 2575 -91 1722 -91 
Q 1428 -91 1123 -41 
Q 819 9 494 109 
L 494 744 
Q 775 591 1075 516 
Q 1375 441 1709 441 
Q 2250 441 2565 725 
Q 2881 1009 2881 1497 
Q 2881 1984 2565 2268 
Q 2250 2553 1709 2553 
Q 1456 2553 1204 2497 
Q 953 2441 691 2322 
L 691 4666 
z
" transform="scale(0.015625)"/>
       </defs>
       <use xlink:href="#DejaVuSans-2212"/>
       <use xlink:href="#DejaVuSans-30" x="83.789062"/>
       <use xlink:href="#DejaVuSans-2e" x="147.412109"/>
       <use xlink:href="#DejaVuSans-35" x="179.199219"/>
      </g>
     </g>
    </g>
    <g id="xtick_3">
     <g id="line2d_8">
      <g>
       <use xlink:href="#m2bfdfff142" x="270.039939" y="192.13375" style="stroke: #000000; stroke-width: 0.8"/>
      </g>
     </g>
     <g id="text_3">
      <!-- 0.0 -->
      <g transform="translate(259.702908 209.011719) scale(0.13 -0.13)">
       <use xlink:href="#DejaVuSans-30"/>
       <use xlink:href="#DejaVuSans-2e" x="63.623047"/>
       <use xlink:href="#DejaVuSans-30" x="95.410156"/>
      </g>
     </g>
    </g>
    <g id="xtick_4">
     <g id="line2d_9">
      <g>
       <use xlink:href="#m2bfdfff142" x="339.278474" y="192.13375" style="stroke: #000000; stroke-width: 0.8"/>
      </g>
     </g>
     <g id="text_4">
      <!-- 0.5 -->
      <g transform="translate(328.941443 209.011719) scale(0.13 -0.13)">
       <use xlink:href="#DejaVuSans-30"/>
       <use xlink:href="#DejaVuSans-2e" x="63.623047"/>
       <use xlink:href="#DejaVuSans-35" x="95.410156"/>
      </g>
     </g>
    </g>
    <g id="xtick_5">
     <g id="line2d_10">
      <g>
       <use xlink:href="#m2bfdfff142" x="408.517008" y="192.13375" style="stroke: #000000; stroke-width: 0.8"/>
      </g>
     </g>
     <g id="text_5">
      <!-- 1.0 -->
      <g transform="translate(398.179977 209.011719) scale(0.13 -0.13)">
       <use xlink:href="#DejaVuSans-31"/>
       <use xlink:href="#DejaVuSans-2e" x="63.623047"/>
       <use xlink:href="#DejaVuSans-30" x="95.410156"/>
      </g>
     </g>
    </g>
    <g id="xtick_6">
     <g id="line2d_11">
      <g>
       <use xlink:href="#m2bfdfff142" x="477.755543" y="192.13375" style="stroke: #000000; stroke-width: 0.8"/>
      </g>
     </g>
     <g id="text_6">
      <!-- 1.5 -->
      <g transform="translate(467.418512 209.011719) scale(0.13 -0.13)">
       <use xlink:href="#DejaVuSans-31"/>
       <use xlink:href="#DejaVuSans-2e" x="63.623047"/>
       <use xlink:href="#DejaVuSans-35" x="95.410156"/>
      </g>
     </g>
    </g>
   </g>
   <g id="matplotlib.axis_2">
    <g id="ytick_1">
     <g id="text_7">
      <!-- −1.208 = $\Delta v$ -->
      <g style="fill: #999999" transform="translate(7.2 167.912734) scale(0.13 -0.13)">
       <defs>
        <path id="DejaVuSans-32" d="M 1228 531 
L 3431 531 
L 3431 0 
L 469 0 
L 469 531 
Q 828 903 1448 1529 
Q 2069 2156 2228 2338 
Q 2531 2678 2651 2914 
Q 2772 3150 2772 3378 
Q 2772 3750 2511 3984 
Q 2250 4219 1831 4219 
Q 1534 4219 1204 4116 
Q 875 4013 500 3803 
L 500 4441 
Q 881 4594 1212 4672 
Q 1544 4750 1819 4750 
Q 2544 4750 2975 4387 
Q 3406 4025 3406 3419 
Q 3406 3131 3298 2873 
Q 3191 2616 2906 2266 
Q 2828 2175 2409 1742 
Q 1991 1309 1228 531 
z
" transform="scale(0.015625)"/>
        <path id="DejaVuSans-38" d="M 2034 2216 
Q 1584 2216 1326 1975 
Q 1069 1734 1069 1313 
Q 1069 891 1326 650 
Q 1584 409 2034 409 
Q 2484 409 2743 651 
Q 3003 894 3003 1313 
Q 3003 1734 2745 1975 
Q 2488 2216 2034 2216 
z
M 1403 2484 
Q 997 2584 770 2862 
Q 544 3141 544 3541 
Q 544 4100 942 4425 
Q 1341 4750 2034 4750 
Q 2731 4750 3128 4425 
Q 3525 4100 3525 3541 
Q 3525 3141 3298 2862 
Q 3072 2584 2669 2484 
Q 3125 2378 3379 2068 
Q 3634 1759 3634 1313 
Q 3634 634 3220 271 
Q 2806 -91 2034 -91 
Q 1263 -91 848 271 
Q 434 634 434 1313 
Q 434 1759 690 2068 
Q 947 2378 1403 2484 
z
M 1172 3481 
Q 1172 3119 1398 2916 
Q 1625 2713 2034 2713 
Q 2441 2713 2670 2916 
Q 2900 3119 2900 3481 
Q 2900 3844 2670 4047 
Q 2441 4250 2034 4250 
Q 1625 4250 1398 4047 
Q 1172 3844 1172 3481 
z
" transform="scale(0.015625)"/>
        <path id="DejaVuSans-20" transform="scale(0.015625)"/>
        <path id="DejaVuSans-3d" d="M 678 2906 
L 4684 2906 
L 4684 2381 
L 678 2381 
L 678 2906 
z
M 678 1631 
L 4684 1631 
L 4684 1100 
L 678 1100 
L 678 1631 
z
" transform="scale(0.015625)"/>
        <path id="DejaVuSans-394" d="M 2188 4044 
L 906 525 
L 3472 525 
L 2188 4044 
z
M 50 0 
L 1831 4666 
L 2547 4666 
L 4325 0 
L 50 0 
z
" transform="scale(0.015625)"/>
        <path id="DejaVuSans-Oblique-76" d="M 459 3500 
L 1069 3500 
L 1581 525 
L 3256 3500 
L 3866 3500 
L 1875 0 
L 1100 0 
L 459 3500 
z
" transform="scale(0.015625)"/>
       </defs>
       <use xlink:href="#DejaVuSans-2212" transform="translate(0 0.78125)"/>
       <use xlink:href="#DejaVuSans-31" transform="translate(83.789062 0.78125)"/>
       <use xlink:href="#DejaVuSans-2e" transform="translate(147.412109 0.78125)"/>
       <use xlink:href="#DejaVuSans-32" transform="translate(173.699219 0.78125)"/>
       <use xlink:href="#DejaVuSans-30" transform="translate(237.322266 0.78125)"/>
       <use xlink:href="#DejaVuSans-38" transform="translate(300.945312 0.78125)"/>
       <use xlink:href="#DejaVuSans-20" transform="translate(364.568359 0.78125)"/>
       <use xlink:href="#DejaVuSans-3d" transform="translate(396.355469 0.78125)"/>
       <use xlink:href="#DejaVuSans-20" transform="translate(480.144531 0.78125)"/>
       <use xlink:href="#DejaVuSans-394" transform="translate(511.931641 0.78125)"/>
       <use xlink:href="#DejaVuSans-Oblique-76" transform="translate(580.339844 0.78125)"/>
      </g>
     </g>
    </g>
    <g id="ytick_2">
     <g id="text_8">
      <!-- 5.07 = $v$ -->
      <g style="fill: #999999" transform="translate(34.5 113.912734) scale(0.13 -0.13)">
       <defs>
        <path id="DejaVuSans-37" d="M 525 4666 
L 3525 4666 
L 3525 4397 
L 1831 0 
L 1172 0 
L 2766 4134 
L 525 4134 
L 525 4666 
z
" transform="scale(0.015625)"/>
       </defs>
       <use xlink:href="#DejaVuSans-35" transform="translate(0 0.78125)"/>
       <use xlink:href="#DejaVuSans-2e" transform="translate(63.623047 0.78125)"/>
       <use xlink:href="#DejaVuSans-30" transform="translate(95.410156 0.78125)"/>
       <use xlink:href="#DejaVuSans-37" transform="translate(159.033203 0.78125)"/>
       <use xlink:href="#DejaVuSans-20" transform="translate(222.65625 0.78125)"/>
       <use xlink:href="#DejaVuSans-3d" transform="translate(254.443359 0.78125)"/>
       <use xlink:href="#DejaVuSans-20" transform="translate(338.232422 0.78125)"/>
       <use xlink:href="#DejaVuSans-Oblique-76" transform="translate(370.019531 0.78125)"/>
      </g>
     </g>
    </g>
    <g id="ytick_3">
     <g id="text_9">
      <!-- 16 = $\Delta d$ -->
      <g style="fill: #999999" transform="translate(37.49 59.912734) scale(0.13 -0.13)">
       <defs>
        <path id="DejaVuSans-36" d="M 2113 2584 
Q 1688 2584 1439 2293 
Q 1191 2003 1191 1497 
Q 1191 994 1439 701 
Q 1688 409 2113 409 
Q 2538 409 2786 701 
Q 3034 994 3034 1497 
Q 3034 2003 2786 2293 
Q 2538 2584 2113 2584 
z
M 3366 4563 
L 3366 3988 
Q 3128 4100 2886 4159 
Q 2644 4219 2406 4219 
Q 1781 4219 1451 3797 
Q 1122 3375 1075 2522 
Q 1259 2794 1537 2939 
Q 1816 3084 2150 3084 
Q 2853 3084 3261 2657 
Q 3669 2231 3669 1497 
Q 3669 778 3244 343 
Q 2819 -91 2113 -91 
Q 1303 -91 875 529 
Q 447 1150 447 2328 
Q 447 3434 972 4092 
Q 1497 4750 2381 4750 
Q 2619 4750 2861 4703 
Q 3103 4656 3366 4563 
z
" transform="scale(0.015625)"/>
        <path id="DejaVuSans-Oblique-64" d="M 2675 525 
Q 2444 222 2128 65 
Q 1813 -91 1428 -91 
Q 903 -91 598 267 
Q 294 625 294 1247 
Q 294 1766 478 2236 
Q 663 2706 1013 3078 
Q 1244 3325 1534 3454 
Q 1825 3584 2144 3584 
Q 2481 3584 2739 3421 
Q 2997 3259 3138 2956 
L 3513 4863 
L 4091 4863 
L 3144 0 
L 2566 0 
L 2675 525 
z
M 891 1350 
Q 891 897 1095 644 
Q 1300 391 1663 391 
Q 1931 391 2161 520 
Q 2391 650 2566 903 
Q 2750 1166 2856 1509 
Q 2963 1853 2963 2188 
Q 2963 2622 2758 2865 
Q 2553 3109 2194 3109 
Q 1922 3109 1687 2981 
Q 1453 2853 1288 2613 
Q 1106 2353 998 2009 
Q 891 1666 891 1350 
z
" transform="scale(0.015625)"/>
       </defs>
       <use xlink:href="#DejaVuSans-31" transform="translate(0 0.015625)"/>
       <use xlink:href="#DejaVuSans-36" transform="translate(63.623047 0.015625)"/>
       <use xlink:href="#DejaVuSans-20" transform="translate(127.246094 0.015625)"/>
       <use xlink:href="#DejaVuSans-3d" transform="translate(159.033203 0.015625)"/>
       <use xlink:href="#DejaVuSans-20" transform="translate(242.822266 0.015625)"/>
       <use xlink:href="#DejaVuSans-394" transform="translate(274.609375 0.015625)"/>
       <use xlink:href="#DejaVuSans-Oblique-64" transform="translate(343.017578 0.015625)"/>
      </g>
     </g>
    </g>
    <g id="ytick_4">
     <g id="text_10">
      <!--  $\Delta v$ -->
      <g transform="translate(69.6 167.912734) scale(0.13 -0.13)">
       <use xlink:href="#DejaVuSans-20" transform="translate(0 0.09375)"/>
       <use xlink:href="#DejaVuSans-394" transform="translate(31.787109 0.09375)"/>
       <use xlink:href="#DejaVuSans-Oblique-76" transform="translate(100.195312 0.09375)"/>
      </g>
     </g>
    </g>
    <g id="ytick_5">
     <g id="text_11">
      <!--  $v$ -->
      <g transform="translate(78.57 113.912734) scale(0.13 -0.13)">
       <use xlink:href="#DejaVuSans-20" transform="translate(0 0.3125)"/>
       <use xlink:href="#DejaVuSans-Oblique-76" transform="translate(31.787109 0.3125)"/>
      </g>
     </g>
    </g>
    <g id="ytick_6">
     <g id="text_12">
      <!--  $\Delta d$ -->
      <g transform="translate(69.08 59.912734) scale(0.13 -0.13)">
       <use xlink:href="#DejaVuSans-20" transform="translate(0 0.015625)"/>
       <use xlink:href="#DejaVuSans-394" transform="translate(31.787109 0.015625)"/>
       <use xlink:href="#DejaVuSans-Oblique-64" transform="translate(100.195312 0.015625)"/>
      </g>
     </g>
    </g>
   </g>
   <g id="patch_9">
    <path d="M 97.4 192.13375 
L 543.8 192.13375 
" style="fill: none; stroke: #000000; stroke-width: 0.8; stroke-linejoin: miter; stroke-linecap: square"/>
   </g>
   <g id="text_13">
    <!-- +2.54 -->
    <g style="fill: #ffffff" transform="translate(325.706722 58.285) scale(0.12 -0.12)">
     <defs>
      <path id="DejaVuSans-2b" d="M 2944 4013 
L 2944 2272 
L 4684 2272 
L 4684 1741 
L 2944 1741 
L 2944 0 
L 2419 0 
L 2419 1741 
L 678 1741 
L 678 2272 
L 2419 2272 
L 2419 4013 
L 2944 4013 
z
" transform="scale(0.015625)"/>
      <path id="DejaVuSans-34" d="M 2419 4116 
L 825 1625 
L 2419 1625 
L 2419 4116 
z
M 2253 4666 
L 3047 4666 
L 3047 1625 
L 3713 1625 
L 3713 1100 
L 3047 1100 
L 3047 0 
L 2419 0 
L 2419 1100 
L 313 1100 
L 313 1709 
L 2253 4666 
z
" transform="scale(0.015625)"/>
     </defs>
     <use xlink:href="#DejaVuSans-2b"/>
     <use xlink:href="#DejaVuSans-32" x="83.789062"/>
     <use xlink:href="#DejaVuSans-2e" x="147.412109"/>
     <use xlink:href="#DejaVuSans-35" x="179.199219"/>
     <use xlink:href="#DejaVuSans-34" x="242.822266"/>
    </g>
   </g>
   <g id="text_14">
    <!-- +0.08 -->
    <g style="fill: #ff0051" transform="translate(173.302104 112.285) scale(0.12 -0.12)">
     <use xlink:href="#DejaVuSans-2b"/>
     <use xlink:href="#DejaVuSans-30" x="83.789062"/>
     <use xlink:href="#DejaVuSans-2e" x="147.412109"/>
     <use xlink:href="#DejaVuSans-30" x="179.199219"/>
     <use xlink:href="#DejaVuSans-38" x="242.822266"/>
    </g>
   </g>
   <g id="text_15">
    <!-- −0.04 -->
    <g style="fill: #008bfb" transform="translate(115.773677 166.285) scale(0.12 -0.12)">
     <use xlink:href="#DejaVuSans-2212"/>
     <use xlink:href="#DejaVuSans-30" x="83.789062"/>
     <use xlink:href="#DejaVuSans-2e" x="147.412109"/>
     <use xlink:href="#DejaVuSans-30" x="179.199219"/>
     <use xlink:href="#DejaVuSans-34" x="242.822266"/>
    </g>
   </g>
  </g>
  <g id="axes_2">
   <g id="matplotlib.axis_3">
    <g id="xtick_7">
     <g id="line2d_12">
      <g>
       <use xlink:href="#m2bfdfff142" x="163.223824" y="192.13375" style="stroke: #000000; stroke-width: 0.8"/>
      </g>
     </g>
     <g id="text_16">
      <!--  -->
      <g transform="translate(143.223824 208.251875) scale(0.12 -0.12)"/>
      <!-- $E[f(X)]$ -->
      <g transform="translate(143.223824 221.68925) scale(0.12 -0.12)">
       <defs>
        <path id="DejaVuSans-Oblique-45" d="M 1081 4666 
L 4031 4666 
L 3928 4134 
L 1606 4134 
L 1338 2753 
L 3566 2753 
L 3463 2222 
L 1234 2222 
L 909 531 
L 3284 531 
L 3181 0 
L 172 0 
L 1081 4666 
z
" transform="scale(0.015625)"/>
        <path id="DejaVuSans-5b" d="M 550 4863 
L 1875 4863 
L 1875 4416 
L 1125 4416 
L 1125 -397 
L 1875 -397 
L 1875 -844 
L 550 -844 
L 550 4863 
z
" transform="scale(0.015625)"/>
        <path id="DejaVuSans-Oblique-66" d="M 3059 4863 
L 2969 4384 
L 2419 4384 
Q 2106 4384 1964 4261 
Q 1822 4138 1753 3809 
L 1691 3500 
L 2638 3500 
L 2553 3053 
L 1606 3053 
L 1013 0 
L 434 0 
L 1031 3053 
L 481 3053 
L 563 3500 
L 1113 3500 
L 1159 3744 
Q 1278 4363 1576 4613 
Q 1875 4863 2516 4863 
L 3059 4863 
z
" transform="scale(0.015625)"/>
        <path id="DejaVuSans-28" d="M 1984 4856 
Q 1566 4138 1362 3434 
Q 1159 2731 1159 2009 
Q 1159 1288 1364 580 
Q 1569 -128 1984 -844 
L 1484 -844 
Q 1016 -109 783 600 
Q 550 1309 550 2009 
Q 550 2706 781 3412 
Q 1013 4119 1484 4856 
L 1984 4856 
z
" transform="scale(0.015625)"/>
        <path id="DejaVuSans-Oblique-58" d="M 878 4666 
L 1516 4666 
L 2316 2981 
L 3763 4666 
L 4500 4666 
L 2578 2438 
L 3738 0 
L 3103 0 
L 2163 1966 
L 459 0 
L -275 0 
L 1906 2509 
L 878 4666 
z
" transform="scale(0.015625)"/>
        <path id="DejaVuSans-29" d="M 513 4856 
L 1013 4856 
Q 1481 4119 1714 3412 
Q 1947 2706 1947 2009 
Q 1947 1309 1714 600 
Q 1481 -109 1013 -844 
L 513 -844 
Q 928 -128 1133 580 
Q 1338 1288 1338 2009 
Q 1338 2731 1133 3434 
Q 928 4138 513 4856 
z
" transform="scale(0.015625)"/>
        <path id="DejaVuSans-5d" d="M 1947 4863 
L 1947 -844 
L 622 -844 
L 622 -397 
L 1369 -397 
L 1369 4416 
L 622 4416 
L 622 4863 
L 1947 4863 
z
" transform="scale(0.015625)"/>
       </defs>
       <use xlink:href="#DejaVuSans-Oblique-45" transform="translate(0 0.015625)"/>
       <use xlink:href="#DejaVuSans-5b" transform="translate(63.183594 0.015625)"/>
       <use xlink:href="#DejaVuSans-Oblique-66" transform="translate(102.197266 0.015625)"/>
       <use xlink:href="#DejaVuSans-28" transform="translate(137.402344 0.015625)"/>
       <use xlink:href="#DejaVuSans-Oblique-58" transform="translate(176.416016 0.015625)"/>
       <use xlink:href="#DejaVuSans-29" transform="translate(244.921875 0.015625)"/>
       <use xlink:href="#DejaVuSans-5d" transform="translate(283.935547 0.015625)"/>
      </g>
     </g>
    </g>
    <g id="xtick_8">
     <g id="line2d_13">
      <g>
       <use xlink:href="#m2bfdfff142" x="163.223825" y="192.13375" style="stroke: #000000; stroke-width: 0.8"/>
      </g>
     </g>
     <g id="text_17">
      <!--  -->
      <g style="fill: #999999" transform="translate(185.223825 209.251875) scale(0.12 -0.12)"/>
      <!-- $ = −0.771$ -->
      <g style="fill: #999999" transform="translate(185.223825 222.68925) scale(0.12 -0.12)">
       <use xlink:href="#DejaVuSans-3d" transform="translate(19.482422 0.78125)"/>
       <use xlink:href="#DejaVuSans-2212" transform="translate(142.236328 0.78125)"/>
       <use xlink:href="#DejaVuSans-30" transform="translate(245.507812 0.78125)"/>
       <use xlink:href="#DejaVuSans-2e" transform="translate(309.130859 0.78125)"/>
       <use xlink:href="#DejaVuSans-37" transform="translate(333.167969 0.78125)"/>
       <use xlink:href="#DejaVuSans-37" transform="translate(395.041016 0.78125)"/>
       <use xlink:href="#DejaVuSans-31" transform="translate(458.664062 0.78125)"/>
      </g>
     </g>
    </g>
   </g>
   <g id="patch_10">
    <path d="M 97.4 192.13375 
L 543.8 192.13375 
" style="fill: none; stroke: #000000; stroke-width: 0.8; stroke-linejoin: miter; stroke-linecap: square"/>
   </g>
  </g>
  <g id="axes_3">
   <g id="matplotlib.axis_4">
    <g id="xtick_9">
     <g id="line2d_14">
      <defs>
       <path id="m582a3aaa2d" d="M 0 0 
L 0 -3.5 
" style="stroke: #000000; stroke-width: 0.8"/>
      </defs>
      <g>
       <use xlink:href="#m582a3aaa2d" x="519.885714" y="25.81375" style="stroke: #000000; stroke-width: 0.8"/>
      </g>
     </g>
     <g id="text_18">
      <!-- $f(x)$ -->
      <g transform="translate(509.885714 16.318125) scale(0.12 -0.12)">
       <defs>
        <path id="DejaVuSans-Oblique-78" d="M 3841 3500 
L 2234 1784 
L 3219 0 
L 2559 0 
L 1819 1388 
L 531 0 
L -166 0 
L 1556 1844 
L 641 3500 
L 1300 3500 
L 1972 2234 
L 3144 3500 
L 3841 3500 
z
" transform="scale(0.015625)"/>
       </defs>
       <use xlink:href="#DejaVuSans-Oblique-66" transform="translate(0 0.015625)"/>
       <use xlink:href="#DejaVuSans-28" transform="translate(35.205078 0.015625)"/>
       <use xlink:href="#DejaVuSans-Oblique-78" transform="translate(74.21875 0.015625)"/>
       <use xlink:href="#DejaVuSans-29" transform="translate(133.398438 0.015625)"/>
      </g>
     </g>
    </g>
    <g id="xtick_10">
     <g id="line2d_15">
      <g>
       <use xlink:href="#m582a3aaa2d" x="519.885716" y="25.81375" style="stroke: #000000; stroke-width: 0.8"/>
      </g>
     </g>
     <g id="text_19">
      <!-- $ = 1.804$ -->
      <g style="fill: #999999" transform="translate(531.885716 16.318125) scale(0.12 -0.12)">
       <use xlink:href="#DejaVuSans-3d" transform="translate(19.482422 0.78125)"/>
       <use xlink:href="#DejaVuSans-31" transform="translate(122.753906 0.78125)"/>
       <use xlink:href="#DejaVuSans-2e" transform="translate(186.376953 0.78125)"/>
       <use xlink:href="#DejaVuSans-38" transform="translate(215.539062 0.78125)"/>
       <use xlink:href="#DejaVuSans-30" transform="translate(279.162109 0.78125)"/>
       <use xlink:href="#DejaVuSans-34" transform="translate(342.785156 0.78125)"/>
      </g>
     </g>
    </g>
   </g>
   <g id="patch_11">
    <path d="M 97.4 192.13375 
L 543.8 192.13375 
" style="fill: none; stroke: #000000; stroke-width: 0.8; stroke-linejoin: miter; stroke-linecap: square"/>
   </g>
  </g>
 </g>
 <defs>
  <clipPath id="pc6d48bab8d">
   <rect x="97.4" y="25.81375" width="446.4" height="166.32"/>
  </clipPath>
 </defs>
</svg>
